<?xml version="1.0" encoding="UTF-8"?>
<svg version="1.1" xmlns="http://www.w3.org/2000/svg" width="512" height="512">
<path d="M0 0 C4.34094035 0.01143088 8.68178459 -0.00620665 13.02270508 -0.01989961 C21.50156773 -0.04201276 29.98020779 -0.0373844 38.45907879 -0.0228364 C45.35636391 -0.01149687 52.25358711 -0.01003353 59.15087891 -0.01545548 C60.13639819 -0.01622165 61.12191747 -0.01698781 62.13730097 -0.0177772 C64.14000894 -0.01937599 66.1427169 -0.02099706 68.14542484 -0.02264015 C86.87944313 -0.03686273 105.61333863 -0.02055992 124.34733677 0.00636168 C140.38599753 0.02869726 156.42447727 0.02481615 172.46313477 0.00176787 C191.13483402 -0.02505203 209.80642595 -0.03548976 228.47814178 -0.02017081 C230.47305805 -0.01857824 232.46797433 -0.01700638 234.46289062 -0.01545548 C235.93480039 -0.01429842 235.93480039 -0.01429842 237.43644571 -0.01311798 C244.31719467 -0.00881951 251.19787496 -0.01604732 258.07861328 -0.02785325 C266.47579364 -0.0419458 274.87274062 -0.03793743 283.2698946 -0.01144953 C287.54582355 0.00159847 291.82136486 0.00699728 296.09729004 -0.00969529 C328.41937524 -0.12516373 353.82691772 4.81015022 378.05688477 27.46612334 C400.58934527 51.13706606 403.58167254 78.80957357 403.46050811 109.84673858 C403.44907723 114.18767893 403.46671476 118.52852316 403.48040771 122.86944366 C403.50252087 131.3483063 403.49789251 139.82694636 403.48334451 148.30581737 C403.47200498 155.20310249 403.47054164 162.10032569 403.47596359 168.99761748 C403.47711284 170.4758964 403.47711284 170.4758964 403.47828531 171.98403955 C403.4798841 173.98674752 403.48150517 175.98945548 403.48314826 177.99216342 C403.49737084 196.7261817 403.48106803 215.46007721 403.45414643 234.19407535 C403.43181085 250.2327361 403.43569196 266.27121585 403.45874023 282.30987334 C403.48556014 300.9815726 403.49599786 319.65316453 403.48067892 338.32488036 C403.47908634 340.31979663 403.47751449 342.31471291 403.47596359 344.3096292 C403.47480653 345.78153897 403.47480653 345.78153897 403.47362608 347.28318429 C403.46932762 354.16393325 403.47655543 361.04461354 403.48836136 367.92535186 C403.50245391 376.32253222 403.49844554 384.7194792 403.47195764 393.11663318 C403.45890964 397.39256212 403.45351083 401.66810344 403.4702034 405.94402862 C403.58567184 438.26611382 398.65035788 463.6736563 375.99438477 487.90362334 C360.86037627 502.30974366 339.63933034 512.7526012 318.55630016 512.78784442 C317.31474893 512.79230226 316.07319769 512.79676011 314.79402369 512.80135304 C313.42422115 512.80126375 312.05441861 512.80107393 310.68461609 512.80079436 C309.22312361 512.80409593 307.76163205 512.80782212 306.30014163 512.81193584 C302.28755649 512.82193095 298.27498631 512.82566863 294.26239049 512.82832515 C289.93288057 512.8322357 285.6033824 512.84181363 281.27388 512.85053802 C270.81866347 512.87028301 260.363446 512.88036693 249.90821549 512.88926581 C244.97973694 512.89365262 240.05125946 512.89901847 235.12278175 512.90425467 C218.73018841 512.92126629 202.33759574 512.93575867 185.94499493 512.94300342 C181.69282213 512.94491319 177.44064934 512.94683354 173.18847656 512.94878936 C172.13166999 512.9492731 171.07486342 512.94975684 169.9860324 512.95025524 C152.88096938 512.95854881 135.77597644 512.98387465 118.670944 513.01637004 C101.09332767 513.04948977 83.51574689 513.06745668 65.93809921 513.07064766 C56.07557282 513.07280839 46.21314858 513.08149275 36.35065269 513.10710883 C27.94802892 513.12888319 19.54553211 513.13683332 11.14288332 513.12714205 C6.86124789 513.12261656 2.57987405 513.12438058 -1.70172501 513.14390349 C-33.3987437 513.28030468 -59.55544736 509.44117785 -83.43920898 486.43877959 C-101.30284667 468.37243396 -109.69251296 445.81077655 -109.58752441 420.62710357 C-109.59242469 419.15274178 -109.5986197 417.67838384 -109.6059823 416.2040323 C-109.62226141 412.18826329 -109.62008867 408.17269214 -109.61460733 404.15690184 C-109.61192211 399.81178069 -109.62649689 395.46671053 -109.63870239 391.1216104 C-109.65969702 382.6219287 -109.66430063 374.12231531 -109.66251451 365.62261073 C-109.66120368 358.70802965 -109.66502735 351.79346976 -109.67243958 344.87889266 C-109.67453892 342.88239889 -109.67663652 340.88590511 -109.6787324 338.88941133 C-109.67977592 337.89549236 -109.68081945 336.90157339 -109.6818946 335.87753566 C-109.70077346 317.10352132 -109.69975422 298.3295461 -109.69292527 279.55552621 C-109.68735356 262.41343221 -109.70816362 245.27148784 -109.74128574 228.12942879 C-109.77509247 210.49506912 -109.79018226 192.86078098 -109.78556871 175.22638834 C-109.78333082 165.33929901 -109.78846706 155.4523479 -109.8134613 145.5652864 C-109.83456502 137.14602019 -109.83797719 128.72696796 -109.81916171 120.30769269 C-109.81005882 116.01964101 -109.80869144 111.73198729 -109.82951736 107.44396758 C-109.97612494 75.08325158 -105.06533663 49.66433591 -82.38061523 25.40362334 C-58.70967252 2.87116284 -31.037165 -0.12116444 0 0 Z " fill="#EF5350" transform="translate(109.193115234375,-0.6536233425140381)"/>
<path d="M0 0 C2 3 2 3 1.9375 6.4375 C0.79364908 10.78413349 -0.24430258 11.63754517 -4 14 C-7.49609375 14.58203125 -7.49609375 14.58203125 -11.4375 14.8125 C-23.12439564 15.8881629 -33.07176542 20.72936736 -41.09765625 29.47265625 C-47.87491634 38.47653156 -51.24223448 48.38235734 -51.4140625 59.55859375 C-51.43342865 60.34774673 -51.4527948 61.13689972 -51.4727478 61.94996643 C-51.53204824 64.44570447 -51.5787285 66.94148989 -51.625 69.4375 C-51.66322551 71.13999296 -51.70227984 72.84246752 -51.7421875 74.54492188 C-51.83925345 78.69651339 -51.91921221 82.84793287 -52 87 C-40.45 87 -28.9 87 -17 87 C-17.11762684 76.48595799 -17.11762684 76.48595799 -17.27026367 65.97241211 C-17.4678564 45.60078242 -12.6358155 29.05877167 1.8671875 14.0703125 C14.00038892 2.74263482 29.11893244 -2.69143729 45.5793457 -2.54321289 C60.75581695 -1.87765401 76.58302327 4.90230994 87 16 C101.0968729 32.59294651 104.53317326 49.13512131 104.1875 70.3125 C104.17241019 71.93944059 104.15872947 73.56639489 104.14648438 75.19335938 C104.11385481 79.12925271 104.06231656 83.06446938 104 87 C104.85231201 86.97381592 105.70462402 86.94763184 106.58276367 86.9206543 C109.76027127 86.83518508 112.9371911 86.77263211 116.11547852 86.7253418 C117.48807102 86.70027383 118.86053102 86.66620918 120.23266602 86.62280273 C122.21050696 86.56182469 124.18934184 86.53638991 126.16796875 86.51171875 C127.35672607 86.48553467 128.5454834 86.45935059 129.77026367 86.43237305 C134.01923262 87.17913038 135.42994083 88.58294945 138 92 C138.77954102 94.78417969 138.77954102 94.78417969 139.00390625 97.921875 C139.15158447 99.75419678 139.15158447 99.75419678 139.30224609 101.62353516 C139.38934521 102.99900146 139.47608078 104.37449081 139.5625 105.75 C139.67336994 107.23891398 139.78624019 108.72768005 139.90087891 110.21630859 C140.22471158 114.51163973 140.51725059 118.80866164 140.80462646 123.10656738 C141.15520165 128.29849721 141.52672724 133.48895494 141.89453125 138.6796875 C142.39366089 145.74814799 142.88911464 152.81682941 143.37475586 159.88623047 C144.95342486 182.80223528 146.73914428 205.69993467 148.55326843 228.59825134 C149.42560881 239.62024457 150.28960946 250.6428096 151.12109375 261.66796875 C151.20368439 262.74396332 151.28627502 263.81995789 151.37136841 264.92855835 C151.88136017 271.76207219 152.23019908 278.58814867 152.4375 285.4375 C152.49005447 286.65634384 152.49005447 286.65634384 152.54367065 287.89981079 C152.56670207 291.42446478 152.44230666 293.48204493 150.11552525 296.20677948 C145.61269729 298.79849768 141.70531149 298.55399036 136.59300232 298.50793457 C135.00436744 298.51729451 135.00436744 298.51729451 133.38363892 298.52684355 C129.82902025 298.54281912 126.27508295 298.53015091 122.72045898 298.51757812 C120.17451578 298.52299715 117.62857571 298.53011857 115.0826416 298.53881836 C108.88221631 298.55518244 102.68204405 298.55276256 96.48161536 298.5411678 C91.44313677 298.53213571 86.40471247 298.53090849 81.3662281 298.53526306 C80.64924188 298.53587599 79.93225566 298.53648893 79.19354259 298.53712043 C77.73703017 298.53839932 76.28051776 298.53969618 74.82400537 298.5410108 C61.16608167 298.55241726 47.50826536 298.53930146 33.85035927 298.51780933 C22.12813172 298.49993444 10.40606259 298.50304549 -1.31616211 298.52148438 C-14.92662205 298.54288337 -28.5369879 298.55132264 -42.14746231 298.53903532 C-43.59832281 298.53776111 -45.04918333 298.53650363 -46.50004387 298.53526306 C-47.21391064 298.53464596 -47.92777741 298.53402886 -48.66327651 298.53339306 C-53.69692798 298.52993751 -58.73051983 298.53577279 -63.76416206 298.54518127 C-70.53658212 298.55756145 -77.30865615 298.54876623 -84.08106232 298.52560425 C-86.57078235 298.52030207 -89.06052752 298.52185652 -91.55023766 298.53065491 C-94.94049808 298.54153382 -98.32978792 298.52793846 -101.71998596 298.50793457 C-103.20902643 298.5213189 -103.20902643 298.5213189 -104.72814852 298.53497362 C-111.37275176 298.45856385 -111.37275176 298.45856385 -114.61213589 296.09033966 C-116.13675983 293.79401839 -116.49357505 292.69327901 -116.4609375 289.96484375 C-116.45843994 289.16844482 -116.45594238 288.3720459 -116.45336914 287.55151367 C-116.42750732 286.68888916 -116.40164551 285.82626465 -116.375 284.9375 C-116.35457642 283.58072144 -116.35457642 283.58072144 -116.33374023 282.1965332 C-116.03608817 268.75465666 -115.25013873 255.13252945 -113.46484375 241.80078125 C-112.92254281 237.36667355 -112.693314 232.96054147 -112.5 228.5 C-112.27479599 223.30362609 -111.93015816 218.19591583 -111.23632812 213.04101562 C-110.79243935 209.20743073 -110.66702082 205.35385088 -110.5 201.5 C-110.27479599 196.30362609 -109.93015816 191.19591583 -109.23632812 186.04101562 C-108.79243935 182.20743073 -108.66702082 178.35385088 -108.5 174.5 C-108.27935006 169.40870683 -107.94159109 164.4185951 -107.26318359 159.36376953 C-106.70456628 154.34657768 -106.47849609 149.29855632 -106.18405151 144.26022339 C-105.97582667 140.70952708 -105.75762107 137.15944811 -105.5390625 133.609375 C-105.49484665 132.89027451 -105.4506308 132.17117401 -105.40507507 131.43028259 C-104.96070108 124.26270486 -104.46233757 117.09966735 -103.9375 109.9375 C-103.85830322 108.83365967 -103.77910645 107.72981934 -103.69750977 106.5925293 C-103.5481977 104.5853552 -103.38808823 102.5789384 -103.21435547 100.57373047 C-103.03398633 98.40806827 -102.91772449 96.23720343 -102.81640625 94.06640625 C-101.95048285 90.81401454 -100.95732642 88.90078592 -98.20214844 86.88916016 C-93.01054207 84.79294836 -87.11938768 85.50839509 -81.625 85.6875 C-80.31660156 85.71005859 -79.00820312 85.73261719 -77.66015625 85.75585938 C-74.43893113 85.81464086 -71.2200568 85.89677269 -68 86 C-68.02356567 84.50388184 -68.02356567 84.50388184 -68.04760742 82.97753906 C-68.10256507 79.22029943 -68.13658525 75.46309406 -68.16479492 71.70556641 C-68.17973355 70.08994542 -68.20009201 68.4743639 -68.22631836 66.85888672 C-68.4296437 53.99756211 -67.42063736 42.5885537 -61.4375 30.9375 C-61.09235352 30.26267578 -60.74720703 29.58785156 -60.39160156 28.89257812 C-52.80487258 14.71719651 -40.21584231 4.9418975 -25 0 C-24.35933594 -0.22429687 -23.71867187 -0.44859375 -23.05859375 -0.6796875 C-16.27638114 -2.74691723 -6.11435097 -4.13131822 0 0 Z " fill="#FEFDFD" transform="translate(238,108)"/>
<path d="M0 0 C5.45312123 3.88420646 10.42447737 8.12926951 15.36328125 12.64453125 C18.0153883 15.01374688 20.73432638 17.26483641 23.5 19.5 C27.96276213 23.11032442 32.22719533 26.88427929 36.46875 30.75 C39.0884481 33.07862053 41.7751531 35.29562947 44.5 37.5 C48.96276213 41.11032442 53.22719533 44.88427929 57.46875 48.75 C60.0884481 51.07862053 62.7751531 53.29562947 65.5 55.5 C69.0947765 58.4081338 72.58260628 61.38541332 76 64.5 C79.31989486 67.52282421 82.69764112 70.42512161 86.1875 73.25 C92.62711993 78.46518515 98.85455403 83.91331752 105.10351562 89.35351562 C108.07855189 91.93637409 111.0694406 94.50056914 114.0625 97.0625 C114.63589111 97.55339111 115.20928223 98.04428223 115.80004883 98.55004883 C116.95530518 99.53885203 118.11065976 100.52754049 119.26611328 101.51611328 C122.17894046 104.00895524 125.08934061 106.50462766 128 109 C129.16665518 110.0000134 130.33332184 111.00001341 131.5 112 C152.5 130 152.5 130 154.25195312 131.50170898 C155.41206337 132.49606605 156.5722192 133.49036992 157.73242188 134.48461914 C160.74978862 137.07050923 163.76622426 139.65747437 166.78125 142.24609375 C167.40386719 142.78041016 168.02648437 143.31472656 168.66796875 143.86523438 C169.84795404 144.87790832 171.02766329 145.89090404 172.20703125 146.90429688 C172.74714844 147.36771484 173.28726562 147.83113281 173.84375 148.30859375 C174.54274414 148.90885376 174.54274414 148.90885376 175.25585938 149.52124023 C177.11300305 151.19212911 177.11300305 151.19212911 180.06147766 152.7094574 C182.3944462 154.68213495 182.95565571 155.77756764 183.56091118 158.81354809 C183.77723792 162.59129044 183.80009422 166.34610651 183.76049805 170.12744141 C183.7669949 171.58503018 183.77605855 173.04260943 183.78749084 174.50016785 C183.81057269 178.45796472 183.79584264 182.41479693 183.77302146 186.37256289 C183.75405834 190.53170358 183.76527384 194.69078138 183.77192688 198.84994507 C183.7782709 205.84933684 183.76000048 212.84834503 183.72729492 219.84765625 C183.69000379 227.89386199 183.69148764 235.93933384 183.7143361 243.98557723 C183.73545164 251.76132261 183.72790401 259.53680174 183.70801735 267.31254196 C183.7001127 270.6015642 183.70192427 273.8903562 183.71204185 277.17937088 C183.79212329 309.53208761 178.86102089 335.00126608 156.1875 359.25 C140.52185235 374.16218965 119.18715017 384.0030728 97.48103333 384.18081665 C96.37630087 384.19162343 96.37630087 384.19162343 95.24925059 384.20264852 C92.79224013 384.22528898 90.33523936 384.2409116 87.87817383 384.25634766 C86.11190555 384.27080644 84.3456397 384.28556424 82.57937622 384.30059814 C66.47953017 384.43066967 50.37900474 384.49671321 34.27873707 384.54844093 C22.38705678 384.58735178 10.49632317 384.65574099 -1.39494151 384.76298869 C-9.7679734 384.83594734 -18.1407469 384.8742919 -26.51408368 384.88746679 C-31.50986312 384.89631283 -36.50446951 384.92041077 -41.49989891 384.98213577 C-46.20272849 385.03958962 -50.90378628 385.05399721 -55.60691452 385.03626251 C-57.32620363 385.03713723 -59.04556811 385.05325593 -60.76453972 385.08630753 C-70.61031585 385.26569015 -77.27002448 384.56368052 -84.73015308 377.37172508 C-85.47920257 376.58905581 -86.22825205 375.80638653 -87 375 C-88.65772716 373.49012635 -90.32329303 371.98876846 -92 370.5 C-93.22203125 369.38625 -93.22203125 369.38625 -94.46875 368.25 C-97.0884481 365.92137947 -99.7751531 363.70437053 -102.5 361.5 C-106.96276213 357.88967558 -111.22719533 354.11572071 -115.46875 350.25 C-118.0884481 347.92137947 -120.7751531 345.70437053 -123.5 343.5 C-127.96276213 339.88967558 -132.22719533 336.11572071 -136.46875 332.25 C-139.0884481 329.92137947 -141.7751531 327.70437053 -144.5 325.5 C-148.96276213 321.88967558 -153.22719533 318.11572071 -157.46875 314.25 C-160.0884481 311.92137947 -162.7751531 309.70437053 -165.5 307.5 C-169.0947765 304.5918662 -172.58260628 301.61458668 -176 298.5 C-180.35542259 294.53234158 -184.8624565 290.79275545 -189.4375 287.08203125 C-192.68208987 284.44580198 -195.87525214 281.77755365 -199 279 C-199 278.67 -199 278.34 -199 278 C-197.68948544 277.99761165 -196.37897087 277.99522329 -195.02874374 277.99276257 C-163.93503616 277.93542979 -132.84140659 277.86271859 -101.74778239 277.77101372 C-97.92251281 277.75974526 -94.09724286 277.74860686 -90.27197266 277.73754883 C-89.12963637 277.7342433 -89.12963637 277.7342433 -87.96422258 277.730871 C-75.62556974 277.69547752 -63.28691696 277.67062498 -50.94823214 277.64965298 C-38.29203324 277.62790723 -25.63590033 277.59486854 -12.97975755 277.55129844 C-5.16726804 277.52476051 2.64513919 277.50708094 10.45767155 277.50065396 C16.44358763 277.49478719 22.42934104 277.4732252 28.41520119 277.44572449 C30.87427026 277.43690456 33.33336379 277.4332298 35.79244804 277.43499184 C39.14124983 277.43663429 42.48947309 277.42003294 45.8381958 277.39872742 C47.30900648 277.40599878 47.30900648 277.40599878 48.8095305 277.41341704 C49.70576056 277.4039605 50.60199063 277.39450396 51.52537918 277.38476086 C52.68504507 277.38191295 52.68504507 277.38191295 53.86813855 277.37900752 C56.61775827 276.89017343 57.99720924 275.92551844 60 274 C60.40379528 271.251724 60.50328557 268.96553265 60.421875 266.21484375 C60.4019046 264.92839211 60.4019046 264.92839211 60.38153076 263.61595154 C60.00853754 248.47180152 58.63190743 233.34278327 57.45764542 218.24491501 C57.10644718 213.70804904 56.76396572 209.17052501 56.4206543 204.63305664 C55.87312057 197.40900822 55.32112742 190.18531639 54.76513672 182.96191406 C54.01717214 173.24265889 53.28291028 163.52242998 52.55358887 153.80175781 C52.14937647 148.4148466 51.74399053 143.02803816 51.33349609 137.64160156 C50.66063536 128.80964488 49.99331854 119.9775895 49.36607361 111.14225769 C49.10067429 107.40446383 48.83115557 103.66697106 48.56161499 99.92947388 C48.38257258 97.41869324 48.2102872 94.90751419 48.03833008 92.39624023 C47.58707412 80.98729025 47.58707412 80.98729025 45 70 C41.41577704 67.61051803 39.62767404 67.69766832 35.36328125 67.5859375 C34.06455078 67.54726562 32.76582031 67.50859375 31.42773438 67.46875 C30.05599427 67.43729483 28.68424939 67.40604749 27.3125 67.375 C25.92901215 67.33680803 24.54554777 67.29775558 23.16210938 67.2578125 C19.7748755 67.16339483 16.38764931 67.07781882 13 67 C12.9906543 66.02353516 12.98130859 65.04707031 12.97167969 64.04101562 C12.93108824 60.33535007 12.86516011 56.63045622 12.79248047 52.92529297 C12.7646637 51.33717948 12.74325909 49.74893764 12.72900391 48.16064453 C12.59089754 33.62264791 11.0931248 20.04179857 3.3671875 7.33203125 C1.9724758 4.95305158 0.96245634 2.58029962 0 0 Z " fill="#D63633" transform="translate(329,128)"/>
<path d="M0 0 C6.27 0 12.54 0 19 0 C19.04898438 2.40796875 19.09796875 4.8159375 19.1484375 7.296875 C19.20247488 9.63352579 19.25977147 11.97007555 19.31738281 14.30664062 C19.35562358 15.92830859 19.39048503 17.55005996 19.421875 19.171875 C19.46763257 21.50551117 19.52560816 23.83857562 19.5859375 26.171875 C19.59748871 26.89493835 19.60903992 27.61800171 19.62094116 28.36297607 C19.7424023 33.51477787 19.7424023 33.51477787 22 38 C25.91644812 38.94284862 29.16423878 39.38087404 33 38 C36.07636999 25.69452006 34.6270966 12.67871571 35 0 C64.37 0 93.74 0 124 0 C124.33 11.55 124.66 23.1 125 35 C126.98 36.98 126.98 36.98 129 39 C132.6203326 39 134.97292821 38.96016983 137.68286133 36.42675781 C139.50611916 33.06750242 139.47873867 29.90379601 139.51171875 26.171875 C139.52966995 25.42286926 139.54762115 24.67386353 139.56611633 23.90216064 C139.62014543 21.51816376 139.65409003 19.1343662 139.6875 16.75 C139.72067975 15.13018064 139.75517003 13.51038756 139.79101562 11.890625 C139.87832785 7.92705587 139.93845437 3.96438763 140 0 C146.27 0 152.54 0 159 0 C160.61033156 16.25037787 161.93628773 32.5111533 163.15641785 48.79504395 C163.3145008 50.90166274 163.47347046 53.00821295 163.63269043 55.11474609 C165.59256485 81.05717533 167.4383712 107.00748004 169.23165226 132.96192741 C169.43412537 135.89011315 169.63763652 138.81822634 169.84123421 141.74633408 C169.97935218 143.73999812 170.11573875 145.73378187 170.25205994 147.72756958 C170.60979582 152.87642103 170.98333403 158.00784128 171.56347656 163.13671875 C172.06616858 168.73718018 172 174.37702326 172 180 C110.95 180 49.9 180 -13 180 C-13 170.46232348 -12.87193713 161.26610105 -12.08203125 151.8125 C-11.98458618 150.58338898 -11.88714111 149.35427795 -11.78674316 148.08792114 C-11.57644093 145.43942995 -11.36420171 142.79118286 -11.14859009 140.14312744 C-10.6244043 133.69870953 -10.11925562 127.25278609 -9.61403465 120.80685806 C-9.49588367 119.29952698 -9.37754651 117.79221048 -9.25902748 116.28490829 C-7.84128923 98.2388235 -6.56848204 80.18295609 -5.3125 62.125 C-5.23533941 61.01584229 -5.23533941 61.01584229 -5.15662003 59.88427734 C-4.95480176 56.98271614 -4.75303885 54.0811511 -4.55140781 51.17957687 C-4.12810471 45.08979699 -3.7018748 39.00022629 -3.27398682 32.9107666 C-3.08878016 30.26720871 -2.9046133 27.62360174 -2.72210693 24.9798584 C-2.45816539 21.17116614 -2.1887569 17.36289827 -1.91796875 13.5546875 C-1.83984451 12.4108963 -1.76172028 11.2671051 -1.68122864 10.08865356 C-1.60619614 9.04861176 -1.53116364 8.00856995 -1.45385742 6.93701172 C-1.39002365 6.02716522 -1.32618988 5.11731873 -1.26042175 4.17990112 C-1 2 -1 2 0 0 Z " fill="#D63633" transform="translate(202,210)"/>
<path d="M0 0 C11.55 0 23.1 0 35 0 C34.23562651 17.35494897 32.99068976 34.66538565 31.71031761 51.98792696 C31.40629645 56.10702226 31.10475459 60.2262992 30.80285645 64.34555054 C30.2967618 71.24594733 29.78886614 78.14620964 29.27978516 85.04638672 C28.69307584 92.99896589 28.10895006 100.95173154 27.52625132 108.90460551 C26.96208661 116.60406303 26.39640751 124.30340851 25.8299408 132.00269699 C25.59029821 135.25997159 25.35112124 138.51727986 25.11231995 141.77461624 C24.83119468 145.60802753 24.54871792 149.441337 24.26523018 153.27457428 C24.16199103 154.6732822 24.05918888 156.07202246 23.95687675 157.47079849 C23.81619162 159.39310858 23.67369184 161.31528561 23.53112793 163.23745728 C23.45223076 164.30841455 23.37333359 165.37937183 23.29204559 166.48278236 C22.91750366 170.99353519 22.45038128 175.49618724 22 180 C10.45 180 -1.1 180 -13 180 C-13 167.62581086 -13 167.62581086 -12.62036133 162.60400391 C-12.53620972 161.46356628 -12.45205811 160.32312866 -12.36535645 159.14813232 C-12.22511047 157.33070526 -12.22511047 157.33070526 -12.08203125 155.4765625 C-11.93243643 153.47008097 -11.78284254 151.46359938 -11.63328362 149.45711517 C-11.47325153 147.32055478 -11.31122604 145.18415421 -11.14859009 143.04779053 C-10.80687478 138.55836299 -10.47063941 134.0685358 -10.13549805 129.57861328 C-10.02004215 128.03243964 -9.90457884 126.48626654 -9.78910828 124.94009399 C-9.70244683 123.77958464 -9.70244683 123.77958464 -9.61403465 122.59563065 C-9.43624299 120.21756177 -9.25790171 117.83953466 -9.079422 115.46151733 C-8.24488493 104.33488943 -7.42853289 93.20703333 -6.625 82.078125 C-6.56946142 81.30915768 -6.51392284 80.54019035 -6.45670128 79.74792099 C-6.02256212 73.73506178 -5.58938804 67.72213315 -5.15662003 61.70917511 C-4.44381615 51.80566936 -3.72637051 41.90252221 -3 32 C-2.90829529 30.74546021 -2.81659058 29.49092041 -2.72210693 28.19836426 C-2.45726249 24.59293366 -2.18833966 20.98783241 -1.91796875 17.3828125 C-1.83984451 16.31537811 -1.76172028 15.24794373 -1.68122864 14.14816284 C-1.60619614 13.15970367 -1.53116364 12.17124451 -1.45385742 11.15283203 C-1.35810677 9.87039108 -1.35810677 9.87039108 -1.26042175 8.56204224 C-0.96869883 5.69205753 -0.47425374 2.84552242 0 0 Z " fill="#D63835" transform="translate(151,210)"/>
<path d="M0 0 C9.10814769 7.41600394 14.2318889 16.64144779 17 28 C17.24741624 30.85824192 17.23470464 33.69144162 17.1953125 36.55859375 C17.1924826 37.34774673 17.18965271 38.13689972 17.18673706 38.94996643 C17.17563057 41.44597172 17.15054455 43.94160498 17.125 46.4375 C17.11495785 48.13996874 17.10583417 49.84244316 17.09765625 51.54492188 C17.07743244 55.69686977 17.03826707 59.84802333 17 64 C5.45 64 -6.1 64 -18 64 C-18.3125 46.75 -18.3125 46.75 -18.38793945 41.38574219 C-18.62696943 29.18274348 -20.22555887 18.42010081 -25.875 7.4375 C-26.36419922 6.41172852 -26.36419922 6.41172852 -26.86328125 5.36523438 C-28.93432382 1.25135409 -30.71083852 -1.19512085 -35 -3 C-38.17037671 -3.01370127 -38.17037671 -3.01370127 -41 -2 C-43.387775 1.5816625 -43.47279143 2.76976088 -43 7 C-41.90626978 9.82972993 -40.5081433 12.46106243 -39.0625 15.125 C-38.32066104 16.52155348 -37.58225714 17.9199382 -36.84765625 19.3203125 C-36.3527771 20.23707764 -36.3527771 20.23707764 -35.84790039 21.17236328 C-33.69648921 25.80969818 -33.86933281 30.46151365 -33.90234375 35.484375 C-33.90335083 36.2077002 -33.90435791 36.93102539 -33.90539551 37.67626953 C-33.91061113 40.36752924 -33.92457238 43.05876628 -33.9375 45.75 C-33.958125 51.7725 -33.97875 57.795 -34 64 C-46.54 64 -59.08 64 -72 64 C-72.0825 58.121875 -72.165 52.24375 -72.25 46.1875 C-72.28641602 44.35598389 -72.32283203 42.52446777 -72.36035156 40.63745117 C-72.53796636 25.34293469 -68.82810036 14.26319915 -58.375 2.8125 C-42.14649535 -12.76313378 -17.67886458 -12.85735606 0 0 Z " fill="#D63734" transform="translate(309,131)"/>
<path d="M0 0 C2.88085938 0.24414062 2.88085938 0.24414062 5.76171875 0.48828125 C4.80265625 1.41640625 4.80265625 1.41640625 3.82421875 2.36328125 C-14.63125212 20.9239115 -19.33918266 37.55993406 -19.86328125 63.23828125 C-20.04890625 71.28203125 -20.04890625 71.28203125 -20.23828125 79.48828125 C-31.78828125 79.48828125 -43.33828125 79.48828125 -55.23828125 79.48828125 C-55.32078125 73.79578125 -55.40328125 68.10328125 -55.48828125 62.23828125 C-55.52469727 60.46807617 -55.56111328 58.69787109 -55.59863281 56.87402344 C-55.78292398 41.49208033 -52.13465593 29.95923762 -41.73828125 18.36328125 C-32.68929745 9.7941678 -22.823117 6.76701444 -10.734375 6.16796875 C-5.79541122 5.20776797 -4.53783581 0.98992928 0 0 Z " fill="#D63835" transform="translate(241.23828125,115.51171875)"/>
</svg>
